# xmcd
#
# Track frame offsets:
#	182
#	30792
#	59940
#	84077
#	104705
#	134412
#	161527
#	187052
#	212820
#	249105
#
# Disc length: 3663
#
# Revision: 1
# Processed by: cddbd v1.5.1PL0 Copyright (c) Steve Scherf et al.
# Submitted via: CDex 1.51
# Normalized: r0:DSETVAR1,TDELIM( - ),TSWAP
#
DISCID=860e4d0a
DTITLE=Various Artist - Warner Jazz Collection - Saxophone
DYEAR=1900
DGENRE=Jazz
TTITLE0=Sonny Rollins - St Thomas
TTITLE1=Paul Desmond - Stardust
TTITLE2=Stan Getz - 'Round Midnight
TTITLE3=Coleman Hawkins - Laura
TTITLE4=Dexter Gordon - Rhythm-a-ning
TTITLE5=John Coltrane - Body And Soul
TTITLE6=Johnny Griffin - Autumn Leaves
TTITLE7=Sonny Criss - Cry Me A River
TTITLE8=Art Pepper - Desafinado
TTITLE9=Zoot Sims - Georgia On My Mind
EXTD=
EXTT0=
EXTT1=
EXTT2=
EXTT3=
EXTT4=
EXTT5=
EXTT6=
EXTT7=
EXTT8=
EXTT9=
PLAYORDER=
